<mxfile host="app.diagrams.net" modified="2021-03-01T09:06:39.165Z" agent="5.0 (Macintosh; Intel Mac OS X 10_14_6) AppleWebKit/537.36 (KHTML, like Gecko) Chrome/88.0.4324.146 Safari/537.36" etag="ifW8pe-b0mly8fnK5Cs9" version="14.1.9" type="github">
  <diagram id="vXycolH7H27FM5EHCS22" name="第 1 页">
    <mxGraphModel dx="1474" dy="442" grid="1" gridSize="10" guides="1" tooltips="1" connect="1" arrows="1" fold="1" page="1" pageScale="1" pageWidth="827" pageHeight="1169" math="0" shadow="0">
      <root>
        <mxCell id="0" />
        <mxCell id="1" parent="0" />
        <mxCell id="ix1VJZEj3w-uqfnrlU5E-1" value="官网点击DEMO体验" style="rounded=1;whiteSpace=wrap;html=1;" parent="1" vertex="1">
          <mxGeometry x="280" y="120" width="120" height="60" as="geometry" />
        </mxCell>
        <mxCell id="ix1VJZEj3w-uqfnrlU5E-2" value="" style="endArrow=classic;html=1;" parent="1" edge="1">
          <mxGeometry width="50" height="50" relative="1" as="geometry">
            <mxPoint x="339.5" y="180" as="sourcePoint" />
            <mxPoint x="340" y="220" as="targetPoint" />
          </mxGeometry>
        </mxCell>
        <mxCell id="ix1VJZEj3w-uqfnrlU5E-3" value="demo登录页面" style="rhombus;whiteSpace=wrap;html=1;" parent="1" vertex="1">
          <mxGeometry x="270" y="240" width="140" height="90" as="geometry" />
        </mxCell>
        <mxCell id="ix1VJZEj3w-uqfnrlU5E-4" value="" style="endArrow=classic;html=1;" parent="1" edge="1">
          <mxGeometry width="50" height="50" relative="1" as="geometry">
            <mxPoint x="339.5" y="340" as="sourcePoint" />
            <mxPoint x="340" y="380" as="targetPoint" />
          </mxGeometry>
        </mxCell>
        <mxCell id="ix1VJZEj3w-uqfnrlU5E-5" value="是否登录" style="rhombus;whiteSpace=wrap;html=1;" parent="1" vertex="1">
          <mxGeometry x="300" y="390" width="80" height="80" as="geometry" />
        </mxCell>
        <mxCell id="ix1VJZEj3w-uqfnrlU5E-6" value="" style="endArrow=classic;html=1;" parent="1" edge="1">
          <mxGeometry width="50" height="50" relative="1" as="geometry">
            <mxPoint x="390" y="429.5" as="sourcePoint" />
            <mxPoint x="450" y="429.5" as="targetPoint" />
          </mxGeometry>
        </mxCell>
        <mxCell id="ix1VJZEj3w-uqfnrlU5E-7" value="" style="endArrow=classic;html=1;" parent="1" edge="1">
          <mxGeometry width="50" height="50" relative="1" as="geometry">
            <mxPoint x="290" y="429.5" as="sourcePoint" />
            <mxPoint x="230" y="430" as="targetPoint" />
            <Array as="points">
              <mxPoint x="280" y="430" />
            </Array>
          </mxGeometry>
        </mxCell>
        <mxCell id="ix1VJZEj3w-uqfnrlU5E-8" value="Yes" style="text;html=1;align=center;verticalAlign=middle;resizable=0;points=[];autosize=1;" parent="1" vertex="1">
          <mxGeometry x="240" y="400" width="40" height="20" as="geometry" />
        </mxCell>
        <mxCell id="ix1VJZEj3w-uqfnrlU5E-9" value="No" style="text;html=1;align=center;verticalAlign=middle;resizable=0;points=[];autosize=1;" parent="1" vertex="1">
          <mxGeometry x="400" y="400" width="30" height="20" as="geometry" />
        </mxCell>
        <mxCell id="ix1VJZEj3w-uqfnrlU5E-11" value="是否填写过&lt;br&gt;补充信息" style="rhombus;whiteSpace=wrap;html=1;" parent="1" vertex="1">
          <mxGeometry x="100" y="380" width="120" height="105" as="geometry" />
        </mxCell>
        <mxCell id="ix1VJZEj3w-uqfnrlU5E-12" value="" style="endArrow=classic;html=1;" parent="1" edge="1">
          <mxGeometry width="50" height="50" relative="1" as="geometry">
            <mxPoint x="90" y="429.5" as="sourcePoint" />
            <mxPoint x="30" y="430" as="targetPoint" />
            <Array as="points">
              <mxPoint x="80" y="430" />
            </Array>
          </mxGeometry>
        </mxCell>
        <mxCell id="ix1VJZEj3w-uqfnrlU5E-13" value="Yes" style="text;html=1;align=center;verticalAlign=middle;resizable=0;points=[];autosize=1;" parent="1" vertex="1">
          <mxGeometry x="40" y="400" width="40" height="20" as="geometry" />
        </mxCell>
        <mxCell id="ix1VJZEj3w-uqfnrlU5E-14" value="" style="endArrow=classic;html=1;" parent="1" edge="1">
          <mxGeometry width="50" height="50" relative="1" as="geometry">
            <mxPoint x="159.5" y="487.75" as="sourcePoint" />
            <mxPoint x="159.5" y="543.25" as="targetPoint" />
          </mxGeometry>
        </mxCell>
        <mxCell id="ix1VJZEj3w-uqfnrlU5E-15" value="No" style="text;html=1;align=center;verticalAlign=middle;resizable=0;points=[];autosize=1;" parent="1" vertex="1">
          <mxGeometry x="170" y="505.5" width="30" height="20" as="geometry" />
        </mxCell>
        <mxCell id="ix1VJZEj3w-uqfnrlU5E-16" value="访问demo" style="rounded=0;whiteSpace=wrap;html=1;" parent="1" vertex="1">
          <mxGeometry x="-100" y="410" width="120" height="40" as="geometry" />
        </mxCell>
        <mxCell id="ix1VJZEj3w-uqfnrlU5E-17" value="填写补充信息&lt;br&gt;&lt;font color=&quot;#ff8000&quot;&gt;（姓名、公司）&lt;/font&gt;" style="rounded=1;whiteSpace=wrap;html=1;" parent="1" vertex="1">
          <mxGeometry x="100" y="555" width="120" height="60" as="geometry" />
        </mxCell>
        <mxCell id="ix1VJZEj3w-uqfnrlU5E-20" value="填写手机验证码" style="rounded=1;whiteSpace=wrap;html=1;" parent="1" vertex="1">
          <mxGeometry x="460" y="405" width="110" height="50" as="geometry" />
        </mxCell>
        <mxCell id="ix1VJZEj3w-uqfnrlU5E-23" value="" style="endArrow=classic;html=1;" parent="1" edge="1">
          <mxGeometry width="50" height="50" relative="1" as="geometry">
            <mxPoint x="510" y="460" as="sourcePoint" />
            <mxPoint x="230" y="595" as="targetPoint" />
          </mxGeometry>
        </mxCell>
        <mxCell id="ix1VJZEj3w-uqfnrlU5E-24" value="" style="endArrow=classic;html=1;" parent="1" edge="1">
          <mxGeometry width="50" height="50" relative="1" as="geometry">
            <mxPoint x="90" y="590" as="sourcePoint" />
            <mxPoint x="-40" y="460" as="targetPoint" />
          </mxGeometry>
        </mxCell>
        <mxCell id="ix1VJZEj3w-uqfnrlU5E-26" value="预约演示" style="rounded=1;whiteSpace=wrap;html=1;" parent="1" vertex="1">
          <mxGeometry x="350" y="820" width="120" height="60" as="geometry" />
        </mxCell>
        <mxCell id="ix1VJZEj3w-uqfnrlU5E-45" value="资料下载" style="rounded=1;whiteSpace=wrap;html=1;" parent="1" vertex="1">
          <mxGeometry x="200" y="820" width="120" height="60" as="geometry" />
        </mxCell>
        <mxCell id="ix1VJZEj3w-uqfnrlU5E-46" value="官网点击DEMO体验" style="rounded=1;whiteSpace=wrap;html=1;" parent="1" vertex="1">
          <mxGeometry x="40" y="820" width="120" height="60" as="geometry" />
        </mxCell>
        <mxCell id="ix1VJZEj3w-uqfnrlU5E-50" value="" style="strokeWidth=2;html=1;shape=mxgraph.flowchart.annotation_1;align=left;pointerEvents=1;rounded=0;sketch=0;rotation=-90;" parent="1" vertex="1">
          <mxGeometry x="247.5" y="737.5" width="25" height="310" as="geometry" />
        </mxCell>
        <mxCell id="ix1VJZEj3w-uqfnrlU5E-51" value="" style="endArrow=classic;html=1;" parent="1" edge="1">
          <mxGeometry width="50" height="50" relative="1" as="geometry">
            <mxPoint x="259.5" y="910" as="sourcePoint" />
            <mxPoint x="259.5" y="970" as="targetPoint" />
          </mxGeometry>
        </mxCell>
        <mxCell id="ix1VJZEj3w-uqfnrlU5E-52" value="是否登录" style="rhombus;whiteSpace=wrap;html=1;rounded=0;sketch=0;" parent="1" vertex="1">
          <mxGeometry x="220" y="980" width="80" height="80" as="geometry" />
        </mxCell>
        <mxCell id="ix1VJZEj3w-uqfnrlU5E-53" value="" style="endArrow=classic;html=1;" parent="1" edge="1">
          <mxGeometry width="50" height="50" relative="1" as="geometry">
            <mxPoint x="210" y="1019.5" as="sourcePoint" />
            <mxPoint x="150" y="1020" as="targetPoint" />
            <Array as="points">
              <mxPoint x="200" y="1020" />
            </Array>
          </mxGeometry>
        </mxCell>
        <mxCell id="ix1VJZEj3w-uqfnrlU5E-54" value="Yes" style="text;html=1;align=center;verticalAlign=middle;resizable=0;points=[];autosize=1;" parent="1" vertex="1">
          <mxGeometry x="160" y="990" width="40" height="20" as="geometry" />
        </mxCell>
        <mxCell id="ix1VJZEj3w-uqfnrlU5E-55" value="" style="endArrow=classic;html=1;" parent="1" edge="1">
          <mxGeometry width="50" height="50" relative="1" as="geometry">
            <mxPoint x="310" y="1019.5" as="sourcePoint" />
            <mxPoint x="370" y="1019.5" as="targetPoint" />
          </mxGeometry>
        </mxCell>
        <mxCell id="ix1VJZEj3w-uqfnrlU5E-56" value="No" style="text;html=1;align=center;verticalAlign=middle;resizable=0;points=[];autosize=1;" parent="1" vertex="1">
          <mxGeometry x="320" y="990" width="30" height="20" as="geometry" />
        </mxCell>
        <mxCell id="ix1VJZEj3w-uqfnrlU5E-57" value="准备工作" style="rounded=1;whiteSpace=wrap;html=1;sketch=0;" parent="1" vertex="1">
          <mxGeometry x="160" y="1240" width="145" height="50" as="geometry" />
        </mxCell>
        <mxCell id="ix1VJZEj3w-uqfnrlU5E-58" value="" style="endArrow=classic;html=1;" parent="1" edge="1">
          <mxGeometry width="50" height="50" relative="1" as="geometry">
            <mxPoint x="232" y="1300" as="sourcePoint" />
            <mxPoint x="232" y="1320" as="targetPoint" />
          </mxGeometry>
        </mxCell>
        <mxCell id="ix1VJZEj3w-uqfnrlU5E-59" value="拦门" style="rounded=1;whiteSpace=wrap;html=1;sketch=0;" parent="1" vertex="1">
          <mxGeometry x="173" y="1330" width="120" height="40" as="geometry" />
        </mxCell>
        <mxCell id="ix1VJZEj3w-uqfnrlU5E-60" value="" style="endArrow=classic;html=1;" parent="1" edge="1">
          <mxGeometry width="50" height="50" relative="1" as="geometry">
            <mxPoint x="232.5" y="1370" as="sourcePoint" />
            <mxPoint x="233" y="1400" as="targetPoint" />
          </mxGeometry>
        </mxCell>
        <mxCell id="ix1VJZEj3w-uqfnrlU5E-61" value="洗脚&lt;br&gt;&lt;font color=&quot;#ff8000&quot;&gt;（客房作为出嫁房间）&lt;/font&gt;" style="rounded=1;whiteSpace=wrap;html=1;sketch=0;" parent="1" vertex="1">
          <mxGeometry x="170" y="1405" width="127" height="50" as="geometry" />
        </mxCell>
        <mxCell id="ix1VJZEj3w-uqfnrlU5E-64" value="" style="endArrow=classic;html=1;" parent="1" edge="1">
          <mxGeometry width="50" height="50" relative="1" as="geometry">
            <mxPoint x="233" y="1455" as="sourcePoint" />
            <mxPoint x="233" y="1490" as="targetPoint" />
          </mxGeometry>
        </mxCell>
        <mxCell id="ix1VJZEj3w-uqfnrlU5E-65" value="上车" style="rounded=1;whiteSpace=wrap;html=1;sketch=0;" parent="1" vertex="1">
          <mxGeometry x="102.5" y="1515" width="120" height="40" as="geometry" />
        </mxCell>
        <mxCell id="ix1VJZEj3w-uqfnrlU5E-68" value="上轿" style="rounded=1;whiteSpace=wrap;html=1;sketch=0;" parent="1" vertex="1">
          <mxGeometry x="250" y="1515" width="120" height="40" as="geometry" />
        </mxCell>
        <mxCell id="ix1VJZEj3w-uqfnrlU5E-70" value="" style="strokeWidth=2;html=1;shape=mxgraph.flowchart.annotation_1;align=left;pointerEvents=1;rounded=0;sketch=0;rotation=90;" parent="1" vertex="1">
          <mxGeometry x="222.5" y="1455" width="20" height="100" as="geometry" />
        </mxCell>
        <mxCell id="ix1VJZEj3w-uqfnrlU5E-72" value="" style="strokeWidth=2;html=1;shape=mxgraph.flowchart.annotation_1;align=left;pointerEvents=1;rounded=0;sketch=0;rotation=-90;" parent="1" vertex="1">
          <mxGeometry x="222.5" y="1525" width="20" height="100" as="geometry" />
        </mxCell>
        <mxCell id="ix1VJZEj3w-uqfnrlU5E-73" value="" style="endArrow=classic;html=1;" parent="1" edge="1">
          <mxGeometry width="50" height="50" relative="1" as="geometry">
            <mxPoint x="232" y="1600" as="sourcePoint" />
            <mxPoint x="232" y="1630" as="targetPoint" />
          </mxGeometry>
        </mxCell>
        <mxCell id="ix1VJZEj3w-uqfnrlU5E-74" value="绕特定路线一圈" style="rounded=1;whiteSpace=wrap;html=1;sketch=0;" parent="1" vertex="1">
          <mxGeometry x="173" y="1640" width="120" height="40" as="geometry" />
        </mxCell>
        <mxCell id="ix1VJZEj3w-uqfnrlU5E-75" value="回到家里&lt;br&gt;&lt;font color=&quot;#ff8000&quot;&gt;（闺房作为新房）&lt;/font&gt;" style="rounded=1;whiteSpace=wrap;html=1;sketch=0;" parent="1" vertex="1">
          <mxGeometry x="173.5" y="1729" width="120" height="50" as="geometry" />
        </mxCell>
        <mxCell id="ix1VJZEj3w-uqfnrlU5E-77" value="" style="endArrow=classic;html=1;" parent="1" edge="1">
          <mxGeometry width="50" height="50" relative="1" as="geometry">
            <mxPoint x="232.99999999999986" y="1690" as="sourcePoint" />
            <mxPoint x="233" y="1720" as="targetPoint" />
          </mxGeometry>
        </mxCell>
        <mxCell id="ix1VJZEj3w-uqfnrlU5E-78" value="拦门" style="rounded=1;whiteSpace=wrap;html=1;sketch=0;" parent="1" vertex="1">
          <mxGeometry x="-100" y="1169" width="120" height="40" as="geometry" />
        </mxCell>
        <mxCell id="ix1VJZEj3w-uqfnrlU5E-79" value="拦门" style="rounded=1;whiteSpace=wrap;html=1;sketch=0;" parent="1" vertex="1">
          <mxGeometry x="50" y="1169" width="120" height="40" as="geometry" />
        </mxCell>
        <mxCell id="ix1VJZEj3w-uqfnrlU5E-80" value="拦门" style="rounded=1;whiteSpace=wrap;html=1;sketch=0;" parent="1" vertex="1">
          <mxGeometry x="197" y="1169" width="120" height="40" as="geometry" />
        </mxCell>
        <mxCell id="ix1VJZEj3w-uqfnrlU5E-81" value="拦门" style="rounded=1;whiteSpace=wrap;html=1;sketch=0;" parent="1" vertex="1">
          <mxGeometry x="340" y="1169" width="120" height="40" as="geometry" />
        </mxCell>
        <mxCell id="ix1VJZEj3w-uqfnrlU5E-82" value="拦门" style="rounded=1;whiteSpace=wrap;html=1;sketch=0;" parent="1" vertex="1">
          <mxGeometry x="480" y="1169" width="120" height="40" as="geometry" />
        </mxCell>
        <mxCell id="tNdusveaByt5XPr1Lwjf-1" value="" style="endArrow=classic;html=1;" edge="1" parent="1">
          <mxGeometry width="50" height="50" relative="1" as="geometry">
            <mxPoint x="232.21" y="1790" as="sourcePoint" />
            <mxPoint x="232.21" y="1820" as="targetPoint" />
          </mxGeometry>
        </mxCell>
        <mxCell id="tNdusveaByt5XPr1Lwjf-2" value="换敬酒服，酒店敬酒" style="rounded=1;whiteSpace=wrap;html=1;sketch=0;" vertex="1" parent="1">
          <mxGeometry x="172.5" y="1830" width="120" height="40" as="geometry" />
        </mxCell>
      </root>
    </mxGraphModel>
  </diagram>
</mxfile>
